<?xml version="1.0" encoding="UTF-8"?>
<svg xmlns="http://www.w3.org/2000/svg" viewBox="0 0 452 292">
  <defs>
    <linearGradient id="g" x1="14" y1="0" x2="438" y2="0" gradientUnits="userSpaceOnUse" color-interpolation="linearRGB">
      <stop offset="0%" stop-color="#367dff"/>
      <stop offset="6%" stop-color="#3074ff"/>
      <stop offset="20%" stop-color="#2b6bff"/>
      <stop offset="39%" stop-color="#2762ff"/>
      <stop offset="61%" stop-color="#2557ff"/>
      <stop offset="80%" stop-color="#254cff"/>
      <stop offset="94%" stop-color="#273fff"/>
      <stop offset="100%" stop-color="#292eff"/>
    </linearGradient>
    <linearGradient id="gs" x1="14" y1="0" x2="438" y2="0" gradientUnits="userSpaceOnUse" color-interpolation="linearRGB">
      <stop offset="0%" stop-color="#1e468f"/>
      <stop offset="6%" stop-color="#1b418f"/>
      <stop offset="20%" stop-color="#183c8f"/>
      <stop offset="39%" stop-color="#16368f"/>
      <stop offset="61%" stop-color="#15308f"/>
      <stop offset="80%" stop-color="#152a8f"/>
      <stop offset="94%" stop-color="#16238f"/>
      <stop offset="100%" stop-color="#171a8f"/>
    </linearGradient>
  </defs>
  <g fill="url(#g)">
    <rect x="30" y="14" width="8" height="14"/>
    <rect x="38" y="14" width="8" height="14"/>
    <rect x="46" y="14" width="8" height="14"/>
    <rect x="54" y="14" width="8" height="14"/>
    <rect x="62" y="14" width="8" height="14"/>
    <rect x="70" y="14" width="8" height="14"/>
    <rect x="78" y="14" width="8" height="14"/>
    <rect x="110" y="14" width="8" height="14"/>
    <rect x="118" y="14" width="8" height="14"/>
    <rect x="126" y="14" width="8" height="14"/>
    <rect x="158" y="14" width="8" height="14"/>
    <rect x="166" y="14" width="8" height="14"/>
    <rect x="174" y="14" width="8" height="14"/>
    <rect x="198" y="14" width="8" height="14"/>
    <rect x="206" y="14" width="8" height="14"/>
    <rect x="214" y="14" width="8" height="14"/>
    <rect x="278" y="14" width="8" height="14"/>
    <rect x="286" y="14" width="8" height="14"/>
    <rect x="294" y="14" width="8" height="14"/>
    <rect x="302" y="14" width="8" height="14"/>
    <rect x="310" y="14" width="8" height="14"/>
    <rect x="318" y="14" width="8" height="14"/>
    <rect x="326" y="14" width="8" height="14"/>
    <rect x="334" y="14" width="8" height="14"/>
    <rect x="358" y="14" width="8" height="14"/>
    <rect x="366" y="14" width="8" height="14"/>
    <rect x="374" y="14" width="8" height="14"/>
    <rect x="382" y="14" width="8" height="14"/>
    <rect x="390" y="14" width="8" height="14"/>
    <rect x="398" y="14" width="8" height="14"/>
    <rect x="406" y="14" width="8" height="14"/>
    <rect x="414" y="14" width="8" height="14"/>
    <rect x="30" y="28" width="8" height="14"/>
    <rect x="38" y="28" width="8" height="14"/>
    <rect x="46" y="28" width="8" height="14"/>
    <rect x="54" y="28" width="8" height="14"/>
    <rect x="62" y="28" width="8" height="14"/>
    <rect x="70" y="28" width="8" height="14"/>
    <rect x="78" y="28" width="8" height="14"/>
    <rect x="86" y="28" width="8" height="14"/>
    <rect x="110" y="28" width="8" height="14"/>
    <rect x="118" y="28" width="8" height="14"/>
    <rect x="126" y="28" width="8" height="14"/>
    <rect x="158" y="28" width="8" height="14"/>
    <rect x="166" y="28" width="8" height="14"/>
    <rect x="174" y="28" width="8" height="14"/>
    <rect x="198" y="28" width="8" height="14"/>
    <rect x="206" y="28" width="8" height="14"/>
    <rect x="214" y="28" width="8" height="14"/>
    <rect x="278" y="28" width="8" height="14"/>
    <rect x="286" y="28" width="8" height="14"/>
    <rect x="294" y="28" width="8" height="14"/>
    <rect x="302" y="28" width="8" height="14"/>
    <rect x="310" y="28" width="8" height="14"/>
    <rect x="318" y="28" width="8" height="14"/>
    <rect x="326" y="28" width="8" height="14"/>
    <rect x="334" y="28" width="8" height="14"/>
    <rect x="358" y="28" width="8" height="14"/>
    <rect x="366" y="28" width="8" height="14"/>
    <rect x="374" y="28" width="8" height="14"/>
    <rect x="382" y="28" width="8" height="14"/>
    <rect x="390" y="28" width="8" height="14"/>
    <rect x="398" y="28" width="8" height="14"/>
    <rect x="406" y="28" width="8" height="14"/>
    <rect x="414" y="28" width="8" height="14"/>
    <rect x="30" y="42" width="8" height="14"/>
    <rect x="38" y="42" width="8" height="14"/>
    <rect x="46" y="42" width="8" height="14"/>
    <rect x="54" y="42" width="8" height="14"/>
    <rect x="62" y="42" width="8" height="14"/>
    <rect x="70" y="42" width="8" height="14"/>
    <rect x="78" y="42" width="8" height="14"/>
    <rect x="86" y="42" width="8" height="14"/>
    <rect x="110" y="42" width="8" height="14"/>
    <rect x="118" y="42" width="8" height="14"/>
    <rect x="126" y="42" width="8" height="14"/>
    <rect x="158" y="42" width="8" height="14"/>
    <rect x="166" y="42" width="8" height="14"/>
    <rect x="174" y="42" width="8" height="14"/>
    <rect x="198" y="42" width="8" height="14"/>
    <rect x="206" y="42" width="8" height="14"/>
    <rect x="214" y="42" width="8" height="14"/>
    <rect x="278" y="42" width="8" height="14"/>
    <rect x="286" y="42" width="8" height="14"/>
    <rect x="294" y="42" width="8" height="14"/>
    <rect x="302" y="42" width="8" height="14"/>
    <rect x="310" y="42" width="8" height="14"/>
    <rect x="318" y="42" width="8" height="14"/>
    <rect x="358" y="42" width="8" height="14"/>
    <rect x="366" y="42" width="8" height="14"/>
    <rect x="374" y="42" width="8" height="14"/>
    <rect x="382" y="42" width="8" height="14"/>
    <rect x="390" y="42" width="8" height="14"/>
    <rect x="398" y="42" width="8" height="14"/>
    <rect x="406" y="42" width="8" height="14"/>
    <rect x="414" y="42" width="8" height="14"/>
    <rect x="30" y="56" width="8" height="14"/>
    <rect x="38" y="56" width="8" height="14"/>
    <rect x="46" y="56" width="8" height="14"/>
    <rect x="54" y="56" width="8" height="14"/>
    <rect x="62" y="56" width="8" height="14"/>
    <rect x="70" y="56" width="8" height="14"/>
    <rect x="78" y="56" width="8" height="14"/>
    <rect x="86" y="56" width="8" height="14"/>
    <rect x="110" y="56" width="8" height="14"/>
    <rect x="118" y="56" width="8" height="14"/>
    <rect x="126" y="56" width="8" height="14"/>
    <rect x="158" y="56" width="8" height="14"/>
    <rect x="166" y="56" width="8" height="14"/>
    <rect x="174" y="56" width="8" height="14"/>
    <rect x="198" y="56" width="8" height="14"/>
    <rect x="206" y="56" width="8" height="14"/>
    <rect x="214" y="56" width="8" height="14"/>
    <rect x="278" y="56" width="8" height="14"/>
    <rect x="286" y="56" width="8" height="14"/>
    <rect x="294" y="56" width="8" height="14"/>
    <rect x="302" y="56" width="8" height="14"/>
    <rect x="310" y="56" width="8" height="14"/>
    <rect x="318" y="56" width="8" height="14"/>
    <rect x="358" y="56" width="8" height="14"/>
    <rect x="366" y="56" width="8" height="14"/>
    <rect x="374" y="56" width="8" height="14"/>
    <rect x="382" y="56" width="8" height="14"/>
    <rect x="390" y="56" width="8" height="14"/>
    <rect x="398" y="56" width="8" height="14"/>
    <rect x="406" y="56" width="8" height="14"/>
    <rect x="414" y="56" width="8" height="14"/>
    <rect x="30" y="70" width="8" height="14"/>
    <rect x="38" y="70" width="8" height="14"/>
    <rect x="46" y="70" width="8" height="14"/>
    <rect x="70" y="70" width="8" height="14"/>
    <rect x="78" y="70" width="8" height="14"/>
    <rect x="86" y="70" width="8" height="14"/>
    <rect x="110" y="70" width="8" height="14"/>
    <rect x="118" y="70" width="8" height="14"/>
    <rect x="126" y="70" width="8" height="14"/>
    <rect x="134" y="70" width="8" height="14"/>
    <rect x="142" y="70" width="8" height="14"/>
    <rect x="150" y="70" width="8" height="14"/>
    <rect x="158" y="70" width="8" height="14"/>
    <rect x="166" y="70" width="8" height="14"/>
    <rect x="174" y="70" width="8" height="14"/>
    <rect x="198" y="70" width="8" height="14"/>
    <rect x="206" y="70" width="8" height="14"/>
    <rect x="214" y="70" width="8" height="14"/>
    <rect x="222" y="70" width="8" height="14"/>
    <rect x="230" y="70" width="8" height="14"/>
    <rect x="238" y="70" width="8" height="14"/>
    <rect x="246" y="70" width="8" height="14"/>
    <rect x="254" y="70" width="8" height="14"/>
    <rect x="278" y="70" width="8" height="14"/>
    <rect x="286" y="70" width="8" height="14"/>
    <rect x="294" y="70" width="8" height="14"/>
    <rect x="302" y="70" width="8" height="14"/>
    <rect x="310" y="70" width="8" height="14"/>
    <rect x="318" y="70" width="8" height="14"/>
    <rect x="326" y="70" width="8" height="14"/>
    <rect x="334" y="70" width="8" height="14"/>
    <rect x="358" y="70" width="8" height="14"/>
    <rect x="366" y="70" width="8" height="14"/>
    <rect x="374" y="70" width="8" height="14"/>
    <rect x="382" y="70" width="8" height="14"/>
    <rect x="390" y="70" width="8" height="14"/>
    <rect x="398" y="70" width="8" height="14"/>
    <rect x="406" y="70" width="8" height="14"/>
    <rect x="414" y="70" width="8" height="14"/>
    <rect x="30" y="84" width="8" height="14"/>
    <rect x="38" y="84" width="8" height="14"/>
    <rect x="46" y="84" width="8" height="14"/>
    <rect x="70" y="84" width="8" height="14"/>
    <rect x="78" y="84" width="8" height="14"/>
    <rect x="86" y="84" width="8" height="14"/>
    <rect x="118" y="84" width="8" height="14"/>
    <rect x="126" y="84" width="8" height="14"/>
    <rect x="134" y="84" width="8" height="14"/>
    <rect x="142" y="84" width="8" height="14"/>
    <rect x="150" y="84" width="8" height="14"/>
    <rect x="158" y="84" width="8" height="14"/>
    <rect x="166" y="84" width="8" height="14"/>
    <rect x="198" y="84" width="8" height="14"/>
    <rect x="206" y="84" width="8" height="14"/>
    <rect x="214" y="84" width="8" height="14"/>
    <rect x="222" y="84" width="8" height="14"/>
    <rect x="230" y="84" width="8" height="14"/>
    <rect x="238" y="84" width="8" height="14"/>
    <rect x="246" y="84" width="8" height="14"/>
    <rect x="254" y="84" width="8" height="14"/>
    <rect x="278" y="84" width="8" height="14"/>
    <rect x="286" y="84" width="8" height="14"/>
    <rect x="294" y="84" width="8" height="14"/>
    <rect x="302" y="84" width="8" height="14"/>
    <rect x="310" y="84" width="8" height="14"/>
    <rect x="318" y="84" width="8" height="14"/>
    <rect x="326" y="84" width="8" height="14"/>
    <rect x="334" y="84" width="8" height="14"/>
    <rect x="358" y="84" width="8" height="14"/>
    <rect x="366" y="84" width="8" height="14"/>
    <rect x="374" y="84" width="8" height="14"/>
    <rect x="382" y="84" width="8" height="14"/>
    <rect x="390" y="84" width="8" height="14"/>
    <rect x="398" y="84" width="8" height="14"/>
    <rect x="406" y="84" width="8" height="14"/>
    <rect x="414" y="84" width="8" height="14"/>
    <rect x="162" y="104" width="8" height="14"/>
    <rect x="170" y="104" width="8" height="14"/>
    <rect x="178" y="104" width="8" height="14"/>
    <rect x="186" y="104" width="8" height="14"/>
    <rect x="194" y="104" width="8" height="14"/>
    <rect x="202" y="104" width="8" height="14"/>
    <rect x="234" y="104" width="8" height="14"/>
    <rect x="242" y="104" width="8" height="14"/>
    <rect x="250" y="104" width="8" height="14"/>
    <rect x="258" y="104" width="8" height="14"/>
    <rect x="266" y="104" width="8" height="14"/>
    <rect x="274" y="104" width="8" height="14"/>
    <rect x="282" y="104" width="8" height="14"/>
    <rect x="290" y="104" width="8" height="14"/>
    <rect x="154" y="118" width="8" height="14"/>
    <rect x="162" y="118" width="8" height="14"/>
    <rect x="170" y="118" width="8" height="14"/>
    <rect x="178" y="118" width="8" height="14"/>
    <rect x="186" y="118" width="8" height="14"/>
    <rect x="194" y="118" width="8" height="14"/>
    <rect x="202" y="118" width="8" height="14"/>
    <rect x="210" y="118" width="8" height="14"/>
    <rect x="234" y="118" width="8" height="14"/>
    <rect x="242" y="118" width="8" height="14"/>
    <rect x="250" y="118" width="8" height="14"/>
    <rect x="258" y="118" width="8" height="14"/>
    <rect x="266" y="118" width="8" height="14"/>
    <rect x="274" y="118" width="8" height="14"/>
    <rect x="282" y="118" width="8" height="14"/>
    <rect x="290" y="118" width="8" height="14"/>
    <rect x="154" y="132" width="8" height="14"/>
    <rect x="162" y="132" width="8" height="14"/>
    <rect x="170" y="132" width="8" height="14"/>
    <rect x="178" y="132" width="8" height="14"/>
    <rect x="186" y="132" width="8" height="14"/>
    <rect x="194" y="132" width="8" height="14"/>
    <rect x="202" y="132" width="8" height="14"/>
    <rect x="210" y="132" width="8" height="14"/>
    <rect x="234" y="132" width="8" height="14"/>
    <rect x="242" y="132" width="8" height="14"/>
    <rect x="250" y="132" width="8" height="14"/>
    <rect x="258" y="132" width="8" height="14"/>
    <rect x="266" y="132" width="8" height="14"/>
    <rect x="274" y="132" width="8" height="14"/>
    <rect x="282" y="132" width="8" height="14"/>
    <rect x="290" y="132" width="8" height="14"/>
    <rect x="154" y="146" width="8" height="14"/>
    <rect x="162" y="146" width="8" height="14"/>
    <rect x="170" y="146" width="8" height="14"/>
    <rect x="178" y="146" width="8" height="14"/>
    <rect x="186" y="146" width="8" height="14"/>
    <rect x="194" y="146" width="8" height="14"/>
    <rect x="202" y="146" width="8" height="14"/>
    <rect x="210" y="146" width="8" height="14"/>
    <rect x="234" y="146" width="8" height="14"/>
    <rect x="242" y="146" width="8" height="14"/>
    <rect x="250" y="146" width="8" height="14"/>
    <rect x="258" y="146" width="8" height="14"/>
    <rect x="266" y="146" width="8" height="14"/>
    <rect x="274" y="146" width="8" height="14"/>
    <rect x="282" y="146" width="8" height="14"/>
    <rect x="290" y="146" width="8" height="14"/>
    <rect x="154" y="160" width="8" height="14"/>
    <rect x="162" y="160" width="8" height="14"/>
    <rect x="170" y="160" width="8" height="14"/>
    <rect x="194" y="160" width="8" height="14"/>
    <rect x="202" y="160" width="8" height="14"/>
    <rect x="210" y="160" width="8" height="14"/>
    <rect x="234" y="160" width="8" height="14"/>
    <rect x="242" y="160" width="8" height="14"/>
    <rect x="250" y="160" width="8" height="14"/>
    <rect x="258" y="160" width="8" height="14"/>
    <rect x="266" y="160" width="8" height="14"/>
    <rect x="274" y="160" width="8" height="14"/>
    <rect x="282" y="160" width="8" height="14"/>
    <rect x="290" y="160" width="8" height="14"/>
    <rect x="154" y="174" width="8" height="14"/>
    <rect x="162" y="174" width="8" height="14"/>
    <rect x="170" y="174" width="8" height="14"/>
    <rect x="194" y="174" width="8" height="14"/>
    <rect x="202" y="174" width="8" height="14"/>
    <rect x="210" y="174" width="8" height="14"/>
    <rect x="234" y="174" width="8" height="14"/>
    <rect x="242" y="174" width="8" height="14"/>
    <rect x="250" y="174" width="8" height="14"/>
    <rect x="258" y="174" width="8" height="14"/>
    <rect x="266" y="174" width="8" height="14"/>
    <rect x="274" y="174" width="8" height="14"/>
    <rect x="282" y="174" width="8" height="14"/>
    <rect x="290" y="174" width="8" height="14"/>
    <rect x="14" y="194" width="8" height="14"/>
    <rect x="22" y="194" width="8" height="14"/>
    <rect x="30" y="194" width="8" height="14"/>
    <rect x="38" y="194" width="8" height="14"/>
    <rect x="46" y="194" width="8" height="14"/>
    <rect x="54" y="194" width="8" height="14"/>
    <rect x="62" y="194" width="8" height="14"/>
    <rect x="70" y="194" width="8" height="14"/>
    <rect x="94" y="194" width="8" height="14"/>
    <rect x="102" y="194" width="8" height="14"/>
    <rect x="110" y="194" width="8" height="14"/>
    <rect x="134" y="194" width="8" height="14"/>
    <rect x="142" y="194" width="8" height="14"/>
    <rect x="150" y="194" width="8" height="14"/>
    <rect x="174" y="194" width="8" height="14"/>
    <rect x="182" y="194" width="8" height="14"/>
    <rect x="190" y="194" width="8" height="14"/>
    <rect x="214" y="194" width="8" height="14"/>
    <rect x="222" y="194" width="8" height="14"/>
    <rect x="230" y="194" width="8" height="14"/>
    <rect x="294" y="194" width="8" height="14"/>
    <rect x="302" y="194" width="8" height="14"/>
    <rect x="310" y="194" width="8" height="14"/>
    <rect x="374" y="194" width="8" height="14"/>
    <rect x="382" y="194" width="8" height="14"/>
    <rect x="390" y="194" width="8" height="14"/>
    <rect x="398" y="194" width="8" height="14"/>
    <rect x="406" y="194" width="8" height="14"/>
    <rect x="414" y="194" width="8" height="14"/>
    <rect x="422" y="194" width="8" height="14"/>
    <rect x="430" y="194" width="8" height="14"/>
    <rect x="14" y="208" width="8" height="14"/>
    <rect x="22" y="208" width="8" height="14"/>
    <rect x="30" y="208" width="8" height="14"/>
    <rect x="38" y="208" width="8" height="14"/>
    <rect x="46" y="208" width="8" height="14"/>
    <rect x="54" y="208" width="8" height="14"/>
    <rect x="62" y="208" width="8" height="14"/>
    <rect x="70" y="208" width="8" height="14"/>
    <rect x="94" y="208" width="8" height="14"/>
    <rect x="102" y="208" width="8" height="14"/>
    <rect x="110" y="208" width="8" height="14"/>
    <rect x="126" y="208" width="8" height="14"/>
    <rect x="134" y="208" width="8" height="14"/>
    <rect x="142" y="208" width="8" height="14"/>
    <rect x="150" y="208" width="8" height="14"/>
    <rect x="174" y="208" width="8" height="14"/>
    <rect x="182" y="208" width="8" height="14"/>
    <rect x="190" y="208" width="8" height="14"/>
    <rect x="214" y="208" width="8" height="14"/>
    <rect x="222" y="208" width="8" height="14"/>
    <rect x="230" y="208" width="8" height="14"/>
    <rect x="294" y="208" width="8" height="14"/>
    <rect x="302" y="208" width="8" height="14"/>
    <rect x="310" y="208" width="8" height="14"/>
    <rect x="374" y="208" width="8" height="14"/>
    <rect x="382" y="208" width="8" height="14"/>
    <rect x="390" y="208" width="8" height="14"/>
    <rect x="398" y="208" width="8" height="14"/>
    <rect x="406" y="208" width="8" height="14"/>
    <rect x="414" y="208" width="8" height="14"/>
    <rect x="422" y="208" width="8" height="14"/>
    <rect x="430" y="208" width="8" height="14"/>
    <rect x="14" y="222" width="8" height="14"/>
    <rect x="22" y="222" width="8" height="14"/>
    <rect x="30" y="222" width="8" height="14"/>
    <rect x="38" y="222" width="8" height="14"/>
    <rect x="46" y="222" width="8" height="14"/>
    <rect x="54" y="222" width="8" height="14"/>
    <rect x="62" y="222" width="8" height="14"/>
    <rect x="70" y="222" width="8" height="14"/>
    <rect x="94" y="222" width="8" height="14"/>
    <rect x="102" y="222" width="8" height="14"/>
    <rect x="110" y="222" width="8" height="14"/>
    <rect x="118" y="222" width="8" height="14"/>
    <rect x="126" y="222" width="8" height="14"/>
    <rect x="134" y="222" width="8" height="14"/>
    <rect x="142" y="222" width="8" height="14"/>
    <rect x="174" y="222" width="8" height="14"/>
    <rect x="182" y="222" width="8" height="14"/>
    <rect x="190" y="222" width="8" height="14"/>
    <rect x="214" y="222" width="8" height="14"/>
    <rect x="222" y="222" width="8" height="14"/>
    <rect x="230" y="222" width="8" height="14"/>
    <rect x="294" y="222" width="8" height="14"/>
    <rect x="302" y="222" width="8" height="14"/>
    <rect x="310" y="222" width="8" height="14"/>
    <rect x="374" y="222" width="8" height="14"/>
    <rect x="382" y="222" width="8" height="14"/>
    <rect x="390" y="222" width="8" height="14"/>
    <rect x="398" y="222" width="8" height="14"/>
    <rect x="406" y="222" width="8" height="14"/>
    <rect x="414" y="222" width="8" height="14"/>
    <rect x="422" y="222" width="8" height="14"/>
    <rect x="430" y="222" width="8" height="14"/>
    <rect x="14" y="236" width="8" height="14"/>
    <rect x="22" y="236" width="8" height="14"/>
    <rect x="30" y="236" width="8" height="14"/>
    <rect x="38" y="236" width="8" height="14"/>
    <rect x="46" y="236" width="8" height="14"/>
    <rect x="54" y="236" width="8" height="14"/>
    <rect x="62" y="236" width="8" height="14"/>
    <rect x="70" y="236" width="8" height="14"/>
    <rect x="94" y="236" width="8" height="14"/>
    <rect x="102" y="236" width="8" height="14"/>
    <rect x="110" y="236" width="8" height="14"/>
    <rect x="118" y="236" width="8" height="14"/>
    <rect x="126" y="236" width="8" height="14"/>
    <rect x="134" y="236" width="8" height="14"/>
    <rect x="142" y="236" width="8" height="14"/>
    <rect x="174" y="236" width="8" height="14"/>
    <rect x="182" y="236" width="8" height="14"/>
    <rect x="190" y="236" width="8" height="14"/>
    <rect x="214" y="236" width="8" height="14"/>
    <rect x="222" y="236" width="8" height="14"/>
    <rect x="230" y="236" width="8" height="14"/>
    <rect x="294" y="236" width="8" height="14"/>
    <rect x="302" y="236" width="8" height="14"/>
    <rect x="310" y="236" width="8" height="14"/>
    <rect x="374" y="236" width="8" height="14"/>
    <rect x="382" y="236" width="8" height="14"/>
    <rect x="390" y="236" width="8" height="14"/>
    <rect x="398" y="236" width="8" height="14"/>
    <rect x="406" y="236" width="8" height="14"/>
    <rect x="414" y="236" width="8" height="14"/>
    <rect x="422" y="236" width="8" height="14"/>
    <rect x="430" y="236" width="8" height="14"/>
    <rect x="14" y="250" width="8" height="14"/>
    <rect x="22" y="250" width="8" height="14"/>
    <rect x="30" y="250" width="8" height="14"/>
    <rect x="38" y="250" width="8" height="14"/>
    <rect x="46" y="250" width="8" height="14"/>
    <rect x="54" y="250" width="8" height="14"/>
    <rect x="62" y="250" width="8" height="14"/>
    <rect x="70" y="250" width="8" height="14"/>
    <rect x="94" y="250" width="8" height="14"/>
    <rect x="102" y="250" width="8" height="14"/>
    <rect x="110" y="250" width="8" height="14"/>
    <rect x="134" y="250" width="8" height="14"/>
    <rect x="142" y="250" width="8" height="14"/>
    <rect x="150" y="250" width="8" height="14"/>
    <rect x="174" y="250" width="8" height="14"/>
    <rect x="182" y="250" width="8" height="14"/>
    <rect x="190" y="250" width="8" height="14"/>
    <rect x="214" y="250" width="8" height="14"/>
    <rect x="222" y="250" width="8" height="14"/>
    <rect x="230" y="250" width="8" height="14"/>
    <rect x="238" y="250" width="8" height="14"/>
    <rect x="246" y="250" width="8" height="14"/>
    <rect x="254" y="250" width="8" height="14"/>
    <rect x="262" y="250" width="8" height="14"/>
    <rect x="270" y="250" width="8" height="14"/>
    <rect x="294" y="250" width="8" height="14"/>
    <rect x="302" y="250" width="8" height="14"/>
    <rect x="310" y="250" width="8" height="14"/>
    <rect x="318" y="250" width="8" height="14"/>
    <rect x="326" y="250" width="8" height="14"/>
    <rect x="334" y="250" width="8" height="14"/>
    <rect x="342" y="250" width="8" height="14"/>
    <rect x="350" y="250" width="8" height="14"/>
    <rect x="374" y="250" width="8" height="14"/>
    <rect x="382" y="250" width="8" height="14"/>
    <rect x="390" y="250" width="8" height="14"/>
    <rect x="398" y="250" width="8" height="14"/>
    <rect x="406" y="250" width="8" height="14"/>
    <rect x="414" y="250" width="8" height="14"/>
    <rect x="422" y="250" width="8" height="14"/>
    <rect x="430" y="250" width="8" height="14"/>
    <rect x="14" y="264" width="8" height="14"/>
    <rect x="22" y="264" width="8" height="14"/>
    <rect x="30" y="264" width="8" height="14"/>
    <rect x="38" y="264" width="8" height="14"/>
    <rect x="46" y="264" width="8" height="14"/>
    <rect x="54" y="264" width="8" height="14"/>
    <rect x="62" y="264" width="8" height="14"/>
    <rect x="70" y="264" width="8" height="14"/>
    <rect x="94" y="264" width="8" height="14"/>
    <rect x="102" y="264" width="8" height="14"/>
    <rect x="110" y="264" width="8" height="14"/>
    <rect x="134" y="264" width="8" height="14"/>
    <rect x="142" y="264" width="8" height="14"/>
    <rect x="150" y="264" width="8" height="14"/>
    <rect x="174" y="264" width="8" height="14"/>
    <rect x="182" y="264" width="8" height="14"/>
    <rect x="190" y="264" width="8" height="14"/>
    <rect x="214" y="264" width="8" height="14"/>
    <rect x="222" y="264" width="8" height="14"/>
    <rect x="230" y="264" width="8" height="14"/>
    <rect x="238" y="264" width="8" height="14"/>
    <rect x="246" y="264" width="8" height="14"/>
    <rect x="254" y="264" width="8" height="14"/>
    <rect x="262" y="264" width="8" height="14"/>
    <rect x="270" y="264" width="8" height="14"/>
    <rect x="294" y="264" width="8" height="14"/>
    <rect x="302" y="264" width="8" height="14"/>
    <rect x="310" y="264" width="8" height="14"/>
    <rect x="318" y="264" width="8" height="14"/>
    <rect x="326" y="264" width="8" height="14"/>
    <rect x="334" y="264" width="8" height="14"/>
    <rect x="342" y="264" width="8" height="14"/>
    <rect x="350" y="264" width="8" height="14"/>
    <rect x="374" y="264" width="8" height="14"/>
    <rect x="382" y="264" width="8" height="14"/>
    <rect x="390" y="264" width="8" height="14"/>
    <rect x="398" y="264" width="8" height="14"/>
    <rect x="406" y="264" width="8" height="14"/>
    <rect x="414" y="264" width="8" height="14"/>
    <rect x="422" y="264" width="8" height="14"/>
    <rect x="430" y="264" width="8" height="14"/>
  </g>
  <g fill="url(#gs)">
    <rect x="78" y="14" width="8" height="14"/>
    <rect x="126" y="14" width="8" height="14"/>
    <rect x="174" y="14" width="8" height="14"/>
    <rect x="214" y="14" width="8" height="14"/>
    <rect x="334" y="14" width="8" height="14"/>
    <rect x="414" y="14" width="8" height="14"/>
    <rect x="46" y="28" width="8" height="14"/>
    <rect x="54" y="28" width="8" height="14"/>
    <rect x="62" y="28" width="8" height="14"/>
    <rect x="86" y="28" width="8" height="14"/>
    <rect x="126" y="28" width="8" height="14"/>
    <rect x="174" y="28" width="8" height="14"/>
    <rect x="214" y="28" width="8" height="14"/>
    <rect x="294" y="28" width="8" height="14"/>
    <rect x="302" y="28" width="8" height="14"/>
    <rect x="310" y="28" width="8" height="14"/>
    <rect x="318" y="28" width="8" height="14"/>
    <rect x="326" y="28" width="8" height="14"/>
    <rect x="334" y="28" width="8" height="14"/>
    <rect x="374" y="28" width="8" height="14"/>
    <rect x="382" y="28" width="8" height="14"/>
    <rect x="390" y="28" width="8" height="14"/>
    <rect x="398" y="28" width="8" height="14"/>
    <rect x="406" y="28" width="8" height="14"/>
    <rect x="414" y="28" width="8" height="14"/>
    <rect x="78" y="42" width="8" height="14"/>
    <rect x="86" y="42" width="8" height="14"/>
    <rect x="126" y="42" width="8" height="14"/>
    <rect x="174" y="42" width="8" height="14"/>
    <rect x="214" y="42" width="8" height="14"/>
    <rect x="318" y="42" width="8" height="14"/>
    <rect x="414" y="42" width="8" height="14"/>
    <rect x="46" y="56" width="8" height="14"/>
    <rect x="54" y="56" width="8" height="14"/>
    <rect x="62" y="56" width="8" height="14"/>
    <rect x="86" y="56" width="8" height="14"/>
    <rect x="126" y="56" width="8" height="14"/>
    <rect x="174" y="56" width="8" height="14"/>
    <rect x="214" y="56" width="8" height="14"/>
    <rect x="294" y="56" width="8" height="14"/>
    <rect x="302" y="56" width="8" height="14"/>
    <rect x="310" y="56" width="8" height="14"/>
    <rect x="318" y="56" width="8" height="14"/>
    <rect x="358" y="56" width="8" height="14"/>
    <rect x="366" y="56" width="8" height="14"/>
    <rect x="374" y="56" width="8" height="14"/>
    <rect x="382" y="56" width="8" height="14"/>
    <rect x="390" y="56" width="8" height="14"/>
    <rect x="414" y="56" width="8" height="14"/>
    <rect x="46" y="70" width="8" height="14"/>
    <rect x="86" y="70" width="8" height="14"/>
    <rect x="110" y="70" width="8" height="14"/>
    <rect x="166" y="70" width="8" height="14"/>
    <rect x="174" y="70" width="8" height="14"/>
    <rect x="254" y="70" width="8" height="14"/>
    <rect x="334" y="70" width="8" height="14"/>
    <rect x="414" y="70" width="8" height="14"/>
    <rect x="30" y="84" width="8" height="14"/>
    <rect x="38" y="84" width="8" height="14"/>
    <rect x="46" y="84" width="8" height="14"/>
    <rect x="70" y="84" width="8" height="14"/>
    <rect x="78" y="84" width="8" height="14"/>
    <rect x="86" y="84" width="8" height="14"/>
    <rect x="118" y="84" width="8" height="14"/>
    <rect x="126" y="84" width="8" height="14"/>
    <rect x="134" y="84" width="8" height="14"/>
    <rect x="142" y="84" width="8" height="14"/>
    <rect x="150" y="84" width="8" height="14"/>
    <rect x="158" y="84" width="8" height="14"/>
    <rect x="166" y="84" width="8" height="14"/>
    <rect x="198" y="84" width="8" height="14"/>
    <rect x="206" y="84" width="8" height="14"/>
    <rect x="214" y="84" width="8" height="14"/>
    <rect x="222" y="84" width="8" height="14"/>
    <rect x="230" y="84" width="8" height="14"/>
    <rect x="238" y="84" width="8" height="14"/>
    <rect x="246" y="84" width="8" height="14"/>
    <rect x="254" y="84" width="8" height="14"/>
    <rect x="278" y="84" width="8" height="14"/>
    <rect x="286" y="84" width="8" height="14"/>
    <rect x="294" y="84" width="8" height="14"/>
    <rect x="302" y="84" width="8" height="14"/>
    <rect x="310" y="84" width="8" height="14"/>
    <rect x="318" y="84" width="8" height="14"/>
    <rect x="326" y="84" width="8" height="14"/>
    <rect x="334" y="84" width="8" height="14"/>
    <rect x="358" y="84" width="8" height="14"/>
    <rect x="366" y="84" width="8" height="14"/>
    <rect x="374" y="84" width="8" height="14"/>
    <rect x="382" y="84" width="8" height="14"/>
    <rect x="390" y="84" width="8" height="14"/>
    <rect x="398" y="84" width="8" height="14"/>
    <rect x="406" y="84" width="8" height="14"/>
    <rect x="414" y="84" width="8" height="14"/>
    <rect x="202" y="104" width="8" height="14"/>
    <rect x="290" y="104" width="8" height="14"/>
    <rect x="170" y="118" width="8" height="14"/>
    <rect x="178" y="118" width="8" height="14"/>
    <rect x="186" y="118" width="8" height="14"/>
    <rect x="210" y="118" width="8" height="14"/>
    <rect x="250" y="118" width="8" height="14"/>
    <rect x="258" y="118" width="8" height="14"/>
    <rect x="266" y="118" width="8" height="14"/>
    <rect x="274" y="118" width="8" height="14"/>
    <rect x="282" y="118" width="8" height="14"/>
    <rect x="290" y="118" width="8" height="14"/>
    <rect x="210" y="132" width="8" height="14"/>
    <rect x="290" y="132" width="8" height="14"/>
    <rect x="170" y="146" width="8" height="14"/>
    <rect x="178" y="146" width="8" height="14"/>
    <rect x="186" y="146" width="8" height="14"/>
    <rect x="210" y="146" width="8" height="14"/>
    <rect x="234" y="146" width="8" height="14"/>
    <rect x="242" y="146" width="8" height="14"/>
    <rect x="250" y="146" width="8" height="14"/>
    <rect x="258" y="146" width="8" height="14"/>
    <rect x="266" y="146" width="8" height="14"/>
    <rect x="290" y="146" width="8" height="14"/>
    <rect x="170" y="160" width="8" height="14"/>
    <rect x="210" y="160" width="8" height="14"/>
    <rect x="290" y="160" width="8" height="14"/>
    <rect x="154" y="174" width="8" height="14"/>
    <rect x="162" y="174" width="8" height="14"/>
    <rect x="170" y="174" width="8" height="14"/>
    <rect x="194" y="174" width="8" height="14"/>
    <rect x="202" y="174" width="8" height="14"/>
    <rect x="210" y="174" width="8" height="14"/>
    <rect x="234" y="174" width="8" height="14"/>
    <rect x="242" y="174" width="8" height="14"/>
    <rect x="250" y="174" width="8" height="14"/>
    <rect x="258" y="174" width="8" height="14"/>
    <rect x="266" y="174" width="8" height="14"/>
    <rect x="274" y="174" width="8" height="14"/>
    <rect x="282" y="174" width="8" height="14"/>
    <rect x="290" y="174" width="8" height="14"/>
    <rect x="70" y="194" width="8" height="14"/>
    <rect x="110" y="194" width="8" height="14"/>
    <rect x="150" y="194" width="8" height="14"/>
    <rect x="190" y="194" width="8" height="14"/>
    <rect x="230" y="194" width="8" height="14"/>
    <rect x="310" y="194" width="8" height="14"/>
    <rect x="430" y="194" width="8" height="14"/>
    <rect x="30" y="208" width="8" height="14"/>
    <rect x="38" y="208" width="8" height="14"/>
    <rect x="46" y="208" width="8" height="14"/>
    <rect x="54" y="208" width="8" height="14"/>
    <rect x="62" y="208" width="8" height="14"/>
    <rect x="70" y="208" width="8" height="14"/>
    <rect x="110" y="208" width="8" height="14"/>
    <rect x="142" y="208" width="8" height="14"/>
    <rect x="150" y="208" width="8" height="14"/>
    <rect x="190" y="208" width="8" height="14"/>
    <rect x="230" y="208" width="8" height="14"/>
    <rect x="310" y="208" width="8" height="14"/>
    <rect x="390" y="208" width="8" height="14"/>
    <rect x="398" y="208" width="8" height="14"/>
    <rect x="406" y="208" width="8" height="14"/>
    <rect x="414" y="208" width="8" height="14"/>
    <rect x="422" y="208" width="8" height="14"/>
    <rect x="430" y="208" width="8" height="14"/>
    <rect x="70" y="222" width="8" height="14"/>
    <rect x="134" y="222" width="8" height="14"/>
    <rect x="142" y="222" width="8" height="14"/>
    <rect x="190" y="222" width="8" height="14"/>
    <rect x="230" y="222" width="8" height="14"/>
    <rect x="310" y="222" width="8" height="14"/>
    <rect x="430" y="222" width="8" height="14"/>
    <rect x="14" y="236" width="8" height="14"/>
    <rect x="22" y="236" width="8" height="14"/>
    <rect x="30" y="236" width="8" height="14"/>
    <rect x="38" y="236" width="8" height="14"/>
    <rect x="46" y="236" width="8" height="14"/>
    <rect x="70" y="236" width="8" height="14"/>
    <rect x="110" y="236" width="8" height="14"/>
    <rect x="118" y="236" width="8" height="14"/>
    <rect x="142" y="236" width="8" height="14"/>
    <rect x="190" y="236" width="8" height="14"/>
    <rect x="230" y="236" width="8" height="14"/>
    <rect x="310" y="236" width="8" height="14"/>
    <rect x="374" y="236" width="8" height="14"/>
    <rect x="382" y="236" width="8" height="14"/>
    <rect x="390" y="236" width="8" height="14"/>
    <rect x="398" y="236" width="8" height="14"/>
    <rect x="406" y="236" width="8" height="14"/>
    <rect x="430" y="236" width="8" height="14"/>
    <rect x="70" y="250" width="8" height="14"/>
    <rect x="110" y="250" width="8" height="14"/>
    <rect x="150" y="250" width="8" height="14"/>
    <rect x="190" y="250" width="8" height="14"/>
    <rect x="270" y="250" width="8" height="14"/>
    <rect x="350" y="250" width="8" height="14"/>
    <rect x="430" y="250" width="8" height="14"/>
    <rect x="14" y="264" width="8" height="14"/>
    <rect x="22" y="264" width="8" height="14"/>
    <rect x="30" y="264" width="8" height="14"/>
    <rect x="38" y="264" width="8" height="14"/>
    <rect x="46" y="264" width="8" height="14"/>
    <rect x="54" y="264" width="8" height="14"/>
    <rect x="62" y="264" width="8" height="14"/>
    <rect x="70" y="264" width="8" height="14"/>
    <rect x="94" y="264" width="8" height="14"/>
    <rect x="102" y="264" width="8" height="14"/>
    <rect x="110" y="264" width="8" height="14"/>
    <rect x="134" y="264" width="8" height="14"/>
    <rect x="142" y="264" width="8" height="14"/>
    <rect x="150" y="264" width="8" height="14"/>
    <rect x="174" y="264" width="8" height="14"/>
    <rect x="182" y="264" width="8" height="14"/>
    <rect x="190" y="264" width="8" height="14"/>
    <rect x="214" y="264" width="8" height="14"/>
    <rect x="222" y="264" width="8" height="14"/>
    <rect x="230" y="264" width="8" height="14"/>
    <rect x="238" y="264" width="8" height="14"/>
    <rect x="246" y="264" width="8" height="14"/>
    <rect x="254" y="264" width="8" height="14"/>
    <rect x="262" y="264" width="8" height="14"/>
    <rect x="270" y="264" width="8" height="14"/>
    <rect x="294" y="264" width="8" height="14"/>
    <rect x="302" y="264" width="8" height="14"/>
    <rect x="310" y="264" width="8" height="14"/>
    <rect x="318" y="264" width="8" height="14"/>
    <rect x="326" y="264" width="8" height="14"/>
    <rect x="334" y="264" width="8" height="14"/>
    <rect x="342" y="264" width="8" height="14"/>
    <rect x="350" y="264" width="8" height="14"/>
    <rect x="374" y="264" width="8" height="14"/>
    <rect x="382" y="264" width="8" height="14"/>
    <rect x="390" y="264" width="8" height="14"/>
    <rect x="398" y="264" width="8" height="14"/>
    <rect x="406" y="264" width="8" height="14"/>
    <rect x="414" y="264" width="8" height="14"/>
    <rect x="422" y="264" width="8" height="14"/>
    <rect x="430" y="264" width="8" height="14"/>
  </g>
</svg>
